<?xml version="1.0" encoding="utf-8"?>
<!-- Generator: Adobe Illustrator 23.0.1, SVG Export Plug-In . SVG Version: 6.00 Build 0)  -->
<svg version="1.1" id="Layer_1" xmlns="http://www.w3.org/2000/svg" xmlns:xlink="http://www.w3.org/1999/xlink" x="0px" y="0px"
	 viewBox="0 0 370.3 52.1" style="enable-background:new 0 0 370.3 52.1;" xml:space="preserve">
<style type="text/css">
	.st0{fill-rule:evenodd;clip-rule:evenodd;fill:#FEEBE2;}
	.st1{fill:#FEEBE2;}
</style>
<g>
	<path class="st0" d="M52.4,15.7c-0.5-4-2.3-7.3-5.3-9.9c-3.6-3.1-7.8-4.3-12.5-3.6c-2.7,0.4-5.2,1.5-7.4,3.2
		c-0.1-0.1-0.3-0.2-0.4-0.2c-2.3-1.7-4.8-2.8-7.6-3C14.5,1.6,10.4,3,6.9,6.3C3.3,9.7,1.6,14,2.1,19.1c0.3,3.5,1.5,6.6,4,9
		c6.6,6.7,13.2,13.2,19.8,19.8c0.9,0.9,1.9,0.9,2.8,0c0.8-0.8,1.5-1.5,2.3-2.3c5.7-5.7,11.5-11.4,17.1-17.2
		C51.6,25,53,20.6,52.4,15.7z M33.5,28.9c-0.1,0-0.3,0-0.4,0c0,0.1,0,0.3,0,0.4c0,3.2-2.6,5.8-5.8,5.8c-3.2,0-5.8-2.6-5.8-5.8
		c0-0.1,0-0.3,0-0.4c-0.1,0-0.3,0-0.4,0c-3.2,0-5.8-2.6-5.8-5.8c0-3.2,2.6-5.8,5.8-5.8c0.1,0,0.3,0,0.4,0c0-0.1,0-0.3,0-0.4
		c0-3.2,2.6-5.8,5.8-5.8c3.2,0,5.8,2.6,5.8,5.8c0,0.1,0,0.3,0,0.4c0.1,0,0.3,0,0.4,0c3.2,0,5.8,2.6,5.8,5.8
		C39.2,26.3,36.7,28.9,33.5,28.9z"/>
	<g>
		<g>
			<polygon class="st1" points="365,15.7 365,12.4 352.1,12.4 352.1,35.7 365,35.7 365,32.4 355.6,32.4 355.6,24.6 364.7,24.6 
				364.7,21.3 355.6,21.3 355.6,15.7 			"/>
			<path class="st1" d="M205.5,23.5c0.9-1.2,1.4-2.6,1.4-4.3c0-2.1-0.8-3.8-2.3-5.1c-1.4-1.2-3.6-1.7-6.7-1.7h-4.1v23.3h3.5v-9.5
				h0.6l6.6,9.5h4.3l-7.2-9.9C203.3,25.4,204.5,24.7,205.5,23.5z M197.4,23.1v-7.4h1.2c3.2,0,4.9,1.2,4.9,3.6c0,2.5-1.7,3.8-5,3.8
				H197.4z"/>
			<path class="st1" d="M229.8,11.9c-3.4,0-6.2,1.2-8.6,3.5c-2.4,2.4-3.6,5.2-3.6,8.5c0,3.7,1.3,6.8,4,9.1c2.4,2.1,5.1,3.1,8.1,3.1
				c3.4,0,6.3-1.2,8.7-3.5c2.4-2.3,3.6-5.2,3.6-8.5c0-3.3-1.2-6.2-3.6-8.6C235.9,13.1,233.1,11.9,229.8,11.9z M235.8,30.3
				c-1.7,1.7-3.7,2.5-6.2,2.5c-2.3,0-4.2-0.8-6-2.5c-1.7-1.7-2.6-3.8-2.6-6.4c0-2.5,0.8-4.5,2.5-6.2c1.7-1.7,3.7-2.5,6.2-2.5
				c2.4,0,4.5,0.8,6.1,2.5c1.7,1.7,2.5,3.8,2.5,6.2C238.3,26.5,237.5,28.6,235.8,30.3z"/>
			<path class="st1" d="M261.4,21.8l-2.3-0.9c-1.7-0.7-2.5-1.6-2.5-2.7c0-0.8,0.3-1.5,1-2.1c0.6-0.6,1.5-0.8,2.4-0.8
				c0.8,0,1.4,0.2,1.9,0.5c0.5,0.3,1,0.9,1.5,1.8l2.9-1.7c-1.5-2.6-3.6-3.9-6.3-3.9c-2,0-3.7,0.6-5,1.8c-1.3,1.2-2,2.6-2,4.4
				c0,2.6,1.6,4.6,4.8,5.9l2.2,0.9c0.6,0.2,1.1,0.5,1.5,0.8c0.4,0.3,0.8,0.6,1,0.9c0.3,0.3,0.5,0.7,0.6,1c0.1,0.4,0.2,0.8,0.2,1.2
				c0,1.1-0.4,2-1.1,2.8c-0.7,0.7-1.6,1.1-2.7,1.1c-1.4,0-2.4-0.5-3.2-1.5c-0.4-0.5-0.7-1.5-0.9-2.8l-3.6,0.8
				c0.3,2.2,1.1,3.9,2.4,5.1c1.3,1.2,3,1.8,5,1.8c2.1,0,3.9-0.7,5.4-2.1c1.4-1.4,2.1-3.2,2.1-5.3c0-1.6-0.4-3-1.3-4.1
				C264.7,23.5,263.3,22.6,261.4,21.8z"/>
			<polygon class="st1" points="277.8,35.7 290.7,35.7 290.7,32.4 281.4,32.4 281.4,24.6 290.5,24.6 290.5,21.3 281.4,21.3 
				281.4,15.7 290.7,15.7 290.7,12.4 277.8,12.4 			"/>
			<path class="st1" d="M299.4,35.7h3.8l2.6-5.7h10l2.4,5.7h3.8L311,10.9L299.4,35.7z M307.3,26.7l3.6-7.9l3.5,7.9H307.3z"/>
			<polygon class="st1" points="328,15.7 333.4,15.7 333.4,35.7 336.9,35.7 336.9,15.7 342.2,15.7 342.2,12.4 328,12.4 			"/>
		</g>
		<path class="st1" d="M83.5,18.3c-1.3-1.6-3.2-2.5-5.2-2.5c-4.4,0-6.9,4-6.9,8.1c0,3.9,2.6,7.9,6.9,7.9c2,0,3.9-1,5.2-2.5v5.4
			c-1.7,0.8-3.4,1.4-5.3,1.4c-6.6,0-11.5-5.7-11.5-12.2c0-6.7,4.7-12.5,11.6-12.5c1.8,0,3.6,0.5,5.2,1.4V18.3z"/>
		<path class="st1" d="M95.8,30.6l-1.9,4.9H89l9.1-24.1h3.5l8.9,24.1h-4.9l-1.8-4.9H95.8z M99.7,18.3L99.7,18.3l-2.6,8.5h5.6
			L99.7,18.3z"/>
		<path class="st1" d="M133,35.5h-5.5l-5.7-9.5h-0.1v9.5h-4.6V12.1h6.2c4.6,0,7.8,2.1,7.8,7.1c0,3-1.6,6-4.8,6.5L133,35.5z
			 M121.7,22.9h0.6c2.5,0,4.3-0.7,4.3-3.6c0-2.9-1.8-3.5-4.3-3.5h-0.6V22.9z"/>
		<path class="st1" d="M145.1,16.1v5.2h7.3v4h-7.3v6.3h7.6v4h-12.1V12.1h12.1v4H145.1z"/>
		<path class="st1" d="M166.1,25.7c1.3-2,2.6-3,3.9-3c0.9,0,1.6,0.4,2,1.1c0.5,0.7,0.7,1.5,0.7,2.4c0,1.2-0.3,2.6-1,4.2
			c-0.7,1.6-1.6,2.9-3,4c-1.3,1.1-2.6,1.6-3.7,1.6c-0.8,0-1.5-0.2-2-0.7c-0.5-0.5-0.8-1.2-0.8-2c0-0.5,0.2-1.5,0.7-3l3.7-12.2
			c0.3-0.9,0.4-1.5,0.4-1.6c0-0.2-0.1-0.4-0.2-0.5c-0.1-0.1-0.5-0.2-1-0.2h-0.5l0.2-0.6c1.6,0,2.8-0.2,3.6-0.5h0.4L166.1,25.7z
			 M163.8,33.9c0,0.5,0.1,0.8,0.3,1.1c0.2,0.2,0.5,0.4,1,0.4c1.5,0,2.8-1.2,4-3.7c1.2-2.5,1.9-4.5,1.9-6c0-0.6-0.1-1.1-0.4-1.5
			c-0.2-0.4-0.6-0.5-1-0.5c-0.7,0-1.4,0.5-2.3,1.4c-0.9,0.9-1.7,2.5-2.4,4.6C164.2,31.7,163.8,33.1,163.8,33.9z"/>
		<path class="st1" d="M175.7,26.8h-0.6c0.1-1.4,0.4-2.5,0.9-3.1c0.5-0.7,1.1-1,1.6-1c0.8,0,1.3,0.5,1.8,1.4
			c0.5,0.9,0.7,2.3,0.7,4.2c0,2.4-0.3,4.7-0.8,6.7c1-1.1,2-2.5,2.9-4.1c0.9-1.7,1.4-3.1,1.4-4.3c0-0.6-0.2-1.1-0.5-1.7
			c-0.3-0.5-0.5-0.9-0.5-1.2c0-0.3,0.1-0.5,0.2-0.7c0.2-0.2,0.3-0.3,0.6-0.3c0.4,0,0.7,0.2,0.9,0.6c0.2,0.4,0.3,1,0.3,1.8
			c0,1.2-0.4,2.7-1.1,4.4c-0.7,1.7-1.8,3.5-3.3,5.2c-1.4,1.7-2.9,3.3-4.3,4.6c-1.4,1.4-2.6,2.3-3.7,2.9c-1,0.5-2,0.8-3,0.8
			c-1.3,0-1.9-0.4-1.9-1.1c0-0.3,0.1-0.5,0.4-0.7c0.3-0.2,0.6-0.3,0.9-0.3c0.2,0,0.6,0.1,1.1,0.2c0.6,0.2,1.2,0.3,1.6,0.3
			c0.6,0,1.2-0.2,1.8-0.5c0.6-0.3,1.3-0.9,2.2-1.8c0.9-0.8,1.5-1.6,1.8-2.2c0.3-0.6,0.7-1.8,0.9-3.4c0.3-1.6,0.4-3.4,0.4-5.2
			c0-1.4-0.1-2.5-0.4-3.3c-0.3-0.8-0.6-1.2-1-1.2C176.4,23.9,175.9,24.9,175.7,26.8z"/>
	</g>
</g>
</svg>
